<?xml version="1.0" encoding="utf-8"?>
<svg id="master-artboard" xmlns="http://www.w3.org/2000/svg" viewBox="0 0 256 256" width="256px" height="256px"><defs><style id="ee-google-fonts">@import url(https://fonts.googleapis.com/css?family=Goudy+Bookletter+1911:400);</style></defs><g transform="matrix(2.3809858453509856, 0, 0, 2.3809858453509856, -116.88436455975565, -1107.6124831345928)"><g id="g-1" transform="matrix(1, 0, 0, 1, 0, 0)">
    <g id="g-2">
        <path class="st0" d="M143.7,542.8c1.1-4.1,2.8-8.1,4.9-11.8l3.3-6.2c1.5-3.7,1.5-7.9,0-11.7l-3.3-6.2c-2.1-3.7-3.8-7.7-4.9-11.8&#10;&#9;&#9;&#9;l-2-6.7c-1.6-3.7-4.5-6.7-8.3-8.3l-6.7-2c-4.1-1.1-8.1-2.8-11.8-4.9l-6.2-3.3c-3.7-1.5-7.9-1.5-11.7,0l-6.2,3.3&#10;&#9;&#9;&#9;c-3.7,2.1-7.6,3.8-11.8,4.9l-6.7,2c-3.7,1.6-6.7,4.5-8.3,8.3l-2,6.7c-1.1,4.1-2.8,8.1-4.9,11.8l-3.3,6.2c-1.5,3.7-1.5,7.9,0,11.7&#10;&#9;&#9;&#9;l3.3,6.2c2.1,3.7,3.8,7.6,4.9,11.8l2,6.7c1.6,3.7,4.5,6.7,8.3,8.3l6.7,2c4.1,1.1,8.1,2.8,11.8,4.9l6.2,3.3c3.7,1.5,7.9,1.5,11.7,0&#10;&#9;&#9;&#9;l6.2-3.3c3.7-2.1,7.7-3.8,11.8-4.9l6.7-2c3.7-1.6,6.7-4.5,8.3-8.3L143.7,542.8z" style="fill: rgb(51, 51, 51); stroke: rgb(240, 255, 252); stroke-width: 4;"/>
    </g>
</g></g><path d="M -37.86946487426758 77.80000305175781 C -37.349464416503906 77.80000305175781 -36.872798919677734 77.79666900634766 -36.4394645690918 77.79000091552734 C -35.99946594238281 77.78333282470703 -35.656131744384766 77.77333068847656 -35.40946578979492 77.76000213623047 C -35.156131744384766 77.73999786376953 -35.006134033203125 77.72999572753906 -34.95946502685547 77.72999572753906 C -34.7861328125 77.72999572753906 -34.67613220214844 77.78333282470703 -34.62946701049805 77.88999938964844 C -34.58279800415039 77.98999786376953 -34.55946731567383 78.1500015258789 -34.55946731567383 78.37000274658203 C -34.55946731567383 78.74333190917969 -34.739463806152344 78.93000030517578 -35.099464416503906 78.93000030517578 C -35.25946807861328 78.93000030517578 -35.429466247558594 78.93333435058594 -35.609466552734375 78.94000244140625 C -35.782798767089844 78.94667053222656 -35.919464111328125 78.94999694824219 -36.019466400146484 78.94999694824219 C -36.11280059814453 78.94999694824219 -36.21613311767578 78.94999694824219 -36.3294677734375 78.94999694824219 C -36.449466705322266 78.94999694824219 -36.539466857910156 78.95333099365234 -36.599464416503906 78.95999908447266 C -36.666133880615234 78.97333526611328 -36.72946548461914 78.98999786376953 -36.789466857910156 79.01000213623047 C -36.849464416503906 79.03666687011719 -36.89613342285156 79.0633316040039 -36.929466247558594 79.08999633789062 C -36.962799072265625 79.12333679199219 -36.989463806152344 79.16666412353516 -37.00946807861328 79.22000122070312 C -37.0361328125 79.27333068847656 -37.052799224853516 79.33333587646484 -37.05946731567383 79.4000015258789 C -37.066131591796875 79.45999908447266 -37.06946563720703 79.53666687011719 -37.06946563720703 79.62999725341797 L -37.06946563720703 91.80000305175781 C -37.06946563720703 92.3133316040039 -36.859466552734375 92.56999969482422 -36.4394645690918 92.56999969482422 L -31.839466094970703 92.56999969482422 L -31.769466400146484 92.56999969482422 C -31.176132202148438 92.56999969482422 -30.739465713500977 92.3499984741211 -30.45946502685547 91.91000366210938 C -30.379467010498047 91.79000091552734 -30.20279884338379 91.43333435058594 -29.929466247558594 90.83999633789062 C -29.656131744384766 90.24666595458984 -29.496131896972656 89.92333221435547 -29.449466705322266 89.87000274658203 C -29.35613250732422 89.75 -29.239465713500977 89.69000244140625 -29.09946632385254 89.69000244140625 C -29.019466400146484 89.69000244140625 -28.93280029296875 89.69999694824219 -28.839466094970703 89.72000122070312 C -28.746131896972656 89.74666595458984 -28.646133422851562 89.80332946777344 -28.539466857910156 89.88999938964844 C -28.426132202148438 89.97666931152344 -28.369464874267578 90.08999633789062 -28.369464874267578 90.2300033569336 C -28.369464874267578 90.3499984741211 -28.526132583618164 91.4800033569336 -28.839466094970703 93.62000274658203 C -28.859466552734375 93.73332977294922 -28.879467010498047 93.81999969482422 -28.899465560913086 93.87999725341797 C -28.926132202148438 93.94666290283203 -28.989465713500977 94.00666809082031 -29.089466094970703 94.05999755859375 C -29.189464569091797 94.11333465576172 -29.326133728027344 94.13999938964844 -29.499465942382812 94.13999938964844 C -29.546133041381836 94.13999938964844 -29.756134033203125 94.13666534423828 -30.129467010498047 94.12999725341797 C -30.50946617126465 94.12333679199219 -31.00946617126465 94.11000061035156 -31.629467010498047 94.08999633789062 C -32.256134033203125 94.07666778564453 -32.95946502685547 94.0633316040039 -33.739463806152344 94.05000305175781 C -34.519466400146484 94.02999877929688 -35.42613220214844 94.01667022705078 -36.45946502685547 94.01000213623047 C -37.4927978515625 94.00333404541016 -38.509464263916016 94 -39.509464263916016 94 L -40.769466400146484 94 C -41.0361328125 94 -41.169464111328125 93.87333679199219 -41.169464111328125 93.62000274658203 C -41.169464111328125 93.41999816894531 -41.10279846191406 93.28333282470703 -40.96946716308594 93.20999908447266 C -40.83613204956055 93.1433334350586 -40.52946472167969 93.0633316040039 -40.04946517944336 92.97000122070312 C -39.95613098144531 92.9566650390625 -39.886131286621094 92.94000244140625 -39.8394660949707 92.91999816894531 C -39.47946548461914 92.82666778564453 -39.29946517944336 92.56999969482422 -39.29946517944336 92.1500015258789 L -39.29946517944336 92.08000183105469 L -39.29946517944336 79.47000122070312 C -39.29946517944336 79.37666320800781 -39.302799224853516 79.30332946777344 -39.30946731567383 79.25 C -39.316131591796875 79.19000244140625 -39.33279800415039 79.13666534423828 -39.359466552734375 79.08999633789062 C -39.37946701049805 79.0433349609375 -39.40946578979492 79.01000213623047 -39.449466705322266 78.98999786376953 C -39.48946762084961 78.96333312988281 -39.532798767089844 78.94667053222656 -39.5794677734375 78.94000244140625 C -39.62613296508789 78.93333435058594 -39.68280029296875 78.92666625976562 -39.74946594238281 78.91999816894531 C -39.82279968261719 78.913330078125 -39.90279769897461 78.91000366210938 -39.98946762084961 78.91000366210938 C -40.076133728027344 78.91000366210938 -40.17279815673828 78.91000366210938 -40.27946472167969 78.91000366210938 C -40.392799377441406 78.91000366210938 -40.509464263916016 78.91000366210938 -40.62946701049805 78.91000366210938 C -41.0361328125 78.87666320800781 -41.23946762084961 78.68000030517578 -41.23946762084961 78.31999969482422 C -41.23946762084961 77.92666625976562 -41.08279800415039 77.72999572753906 -40.769466400146484 77.72999572753906 C -40.70946502685547 77.72999572753906 -40.56946563720703 77.73666381835938 -40.349464416503906 77.75 C -40.12946701049805 77.75666809082031 -39.81279754638672 77.76666259765625 -39.39946746826172 77.77999877929688 C -38.98613357543945 77.7933349609375 -38.5361328125 77.80000305175781 -38.04946517944336 77.80000305175781 L -37.86946487426758 77.80000305175781 ZM -27.30042266845703 85.72999572753906 C -27.30042266845703 85.25666809082031 -26.92042350769043 84.78333282470703 -26.160423278808594 84.30999755859375 C -25.400423049926758 83.83000183105469 -24.553756713867188 83.58999633789062 -23.62042236328125 83.58999633789062 C -23.320423126220703 83.58999633789062 -23.013755798339844 83.62333679199219 -22.700424194335938 83.69000244140625 C -22.3870906829834 83.75 -22.033756256103516 83.86000061035156 -21.640422821044922 84.02000427246094 C -21.24042320251465 84.17333221435547 -20.903757095336914 84.44000244140625 -20.63042449951172 84.81999969482422 C -20.35708999633789 85.2066650390625 -20.187089920043945 85.67333221435547 -20.12042236328125 86.22000122070312 C -20.09375762939453 86.59333038330078 -20.08042335510254 86.88333129882812 -20.08042335510254 87.08999633789062 L -20.08042335510254 91.81999969482422 C -20.08042335510254 92.0999984741211 -20.023757934570312 92.32666778564453 -19.910423278808594 92.5 C -19.803756713867188 92.67333221435547 -19.69709014892578 92.77999877929688 -19.590423583984375 92.81999969482422 C -19.477088928222656 92.85333251953125 -19.367090225219727 92.87000274658203 -19.26042366027832 92.87000274658203 C -19.040424346923828 92.87000274658203 -18.867090225219727 92.8066635131836 -18.74042320251465 92.68000030517578 C -18.613758087158203 92.54666900634766 -18.51708984375 92.413330078125 -18.450424194335938 92.27999877929688 C -18.377090454101562 92.14666748046875 -18.29375648498535 92.08000183105469 -18.200424194335938 92.08000183105469 C -18.0604248046875 92.08000183105469 -17.99042320251465 92.18000030517578 -17.99042320251465 92.37999725341797 C -17.99042320251465 92.76000213623047 -18.16375732421875 93.16999816894531 -18.51042366027832 93.61000061035156 C -18.85042381286621 94.0566635131836 -19.29375648498535 94.27999877929688 -19.840423583984375 94.27999877929688 C -20.047090530395508 94.27999877929688 -20.243757247924805 94.25 -20.430423736572266 94.19000244140625 C -20.617090225219727 94.12333679199219 -20.773757934570312 94.04000091552734 -20.900423049926758 93.94000244140625 C -21.027090072631836 93.83999633789062 -21.140422821044922 93.74333190917969 -21.24042320251465 93.6500015258789 C -21.340423583984375 93.5566635131836 -21.42042350769043 93.47000122070312 -21.480422973632812 93.38999938964844 L -21.55042266845703 93.30000305175781 C -21.570423126220703 93.30000305175781 -21.58042335510254 93.29666900634766 -21.58042335510254 93.29000091552734 C -21.58042335510254 93.27666473388672 -21.58708953857422 93.2699966430664 -21.60042381286621 93.2699966430664 C -21.633756637573242 93.2699966430664 -21.657089233398438 93.28666687011719 -21.67042350769043 93.31999969482422 C -21.6904239654541 93.35333251953125 -21.747089385986328 93.41666412353516 -21.840423583984375 93.51000213623047 C -21.933757781982422 93.60333251953125 -22.063756942749023 93.70333099365234 -22.230422973632812 93.80999755859375 C -22.937089920043945 94.25 -23.680423736572266 94.47000122070312 -24.46042251586914 94.47000122070312 C -25.27375602722168 94.47000122070312 -25.933757781982422 94.21333312988281 -26.4404239654541 93.69999694824219 C -26.94709014892578 93.18000030517578 -27.200424194335938 92.54666900634766 -27.200424194335938 91.80000305175781 L -27.200424194335938 91.7699966430664 C -27.200424194335938 90.86333465576172 -26.867090225219727 90.15333557128906 -26.200424194335938 89.63999938964844 C -25.96042251586914 89.45333099365234 -25.653757095336914 89.28666687011719 -25.280424118041992 89.13999938964844 C -24.907089233398438 88.98666381835938 -24.537090301513672 88.87333679199219 -24.17042350769043 88.80000305175781 C -23.803756713867188 88.72000122070312 -23.45375633239746 88.65333557128906 -23.12042236328125 88.5999984741211 C -22.79375648498535 88.54666900634766 -22.520423889160156 88.51000213623047 -22.30042266845703 88.48999786376953 L -21.980422973632812 88.47000122070312 C -21.853755950927734 88.4366683959961 -21.790424346923828 88.32666778564453 -21.790424346923828 88.13999938964844 L -21.790424346923828 87.2699966430664 C -21.790424346923828 86.4433364868164 -21.977088928222656 85.80332946777344 -22.35042381286621 85.3499984741211 C -22.743757247924805 84.93000030517578 -23.213756561279297 84.72000122070312 -23.76042366027832 84.72000122070312 C -24.60042381286621 84.72000122070312 -25.287090301513672 85.25 -25.820423126220703 86.30999755859375 C -25.96042251586914 86.49666595458984 -26.133756637573242 86.58999633789062 -26.340423583984375 86.58999633789062 C -26.58708953857422 86.58999633789062 -26.807090759277344 86.51333618164062 -27.000423431396484 86.36000061035156 C -27.200424194335938 86.19999694824219 -27.30042266845703 85.98999786376953 -27.30042266845703 85.72999572753906 M -23.900423049926758 93.16000366210938 C -23.540424346923828 93.16000366210938 -23.200424194335938 93.08000183105469 -22.88042449951172 92.91999816894531 C -22.560422897338867 92.76667022705078 -22.33708953857422 92.62666320800781 -22.21042251586914 92.5 C -22.083757400512695 92.37333679199219 -21.98375701904297 92.26333618164062 -21.910423278808594 92.16999816894531 C -21.817089080810547 92.0433349609375 -21.770423889160156 91.86333465576172 -21.770423889160156 91.62999725341797 L -21.770423889160156 91.05000305175781 L -21.770423889160156 90.05999755859375 C -21.770423889160156 89.76667022705078 -21.780424118041992 89.57666778564453 -21.80042266845703 89.48999786376953 C -21.827091217041016 89.40333557128906 -21.893756866455078 89.36000061035156 -22.000423431396484 89.36000061035156 C -22.393756866455078 89.36000061035156 -22.88042449951172 89.42333221435547 -23.46042251586914 89.55000305175781 C -24.047090530395508 89.66999816894531 -24.513755798339844 89.89666748046875 -24.860424041748047 90.2300033569336 C -25.23375701904297 90.5433349609375 -25.42042350769043 90.9800033569336 -25.42042350769043 91.54000091552734 C -25.42042350769043 92.13333129882812 -25.257089614868164 92.56999969482422 -24.930423736572266 92.8499984741211 C -24.71042251586914 93.0566635131836 -24.367090225219727 93.16000366210938 -23.900423049926758 93.16000366210938 ZM -5.992157936096191 94.13999938964844 L -6.462157249450684 94.08999633789062 C -6.755491256713867 94.07666778564453 -7.165491104125977 94.05999755859375 -7.692157745361328 94.04000091552734 C -8.212157249450684 94.01333618164062 -8.732157707214355 94 -9.252157211303711 94 C -9.578824043273926 94 -9.908824920654297 94.00333404541016 -10.242156982421875 94.01000213623047 C -10.582157135009766 94.01667022705078 -10.882158279418945 94.02999877929688 -11.142157554626465 94.05000305175781 C -11.395490646362305 94.0633316040039 -11.62549114227295 94.07666778564453 -11.832157135009766 94.08999633789062 C -12.032157897949219 94.11000061035156 -12.195490837097168 94.12333679199219 -12.32215690612793 94.12999725341797 C -12.448823928833008 94.13666534423828 -12.518823623657227 94.13999938964844 -12.532157897949219 94.13999938964844 C -12.845491409301758 94.13999938964844 -13.002157211303711 93.9366683959961 -13.002157211303711 93.52999877929688 C -13.002157211303711 93.28333282470703 -12.935491561889648 93.12666320800781 -12.802157402038574 93.05999755859375 C -12.668824195861816 93 -12.358823776245117 92.95333099365234 -11.87215805053711 92.91999816894531 C -11.605491638183594 92.90666961669922 -11.395490646362305 92.88999938964844 -11.242156982421875 92.87000274658203 C -10.915491104125977 92.84333038330078 -10.702157974243164 92.76000213623047 -10.602157592773438 92.62000274658203 C -10.495491027832031 92.4800033569336 -10.442157745361328 92.26667022705078 -10.442157745361328 91.9800033569336 L -10.442157745361328 79.81999969482422 C -10.442157745361328 79.66666412353516 -10.452157974243164 79.55000305175781 -10.47215747833252 79.47000122070312 C -10.485490798950195 79.38999938964844 -10.542158126831055 79.30332946777344 -10.642157554626465 79.20999908447266 C -10.748824119567871 79.11666870117188 -10.895490646362305 79.06999969482422 -11.082157135009766 79.06999969482422 L -14.66215705871582 79.06999969482422 C -14.962157249450684 79.06999969482422 -15.165491104125977 79.1066665649414 -15.272157669067383 79.18000030517578 C -15.385490417480469 79.24666595458984 -15.488824844360352 79.37333679199219 -15.582157135009766 79.55999755859375 C -16.235490798950195 80.86000061035156 -16.585491180419922 81.54000091552734 -16.632158279418945 81.5999984741211 C -16.74549102783203 81.72666931152344 -16.87882423400879 81.79000091552734 -17.03215789794922 81.79000091552734 C -17.18549156188965 81.79000091552734 -17.31549072265625 81.72999572753906 -17.422157287597656 81.61000061035156 C -17.522157669067383 81.49666595458984 -17.57215690612793 81.35333251953125 -17.57215690612793 81.18000030517578 L -17.57215690612793 81.16000366210938 C -17.57215690612793 81.09333038330078 -17.338825225830078 79.98999786376953 -16.87215805053711 77.8499984741211 C -16.825490951538086 77.60333251953125 -16.658824920654297 77.47999572753906 -16.37215805053711 77.47999572753906 L -2.382157325744629 77.47999572753906 C -2.1154909133911133 77.47999572753906 -1.952157974243164 77.66666412353516 -1.8921575546264648 78.04000091552734 C -1.4988250732421875 80.07333374023438 -1.3021583557128906 81.09666442871094 -1.3021583557128906 81.11000061035156 C -1.3021583557128906 81.25 -1.3488235473632812 81.37333679199219 -1.4421577453613281 81.47999572753906 C -1.5354900360107422 81.59333038330078 -1.6454906463623047 81.6500015258789 -1.7721576690673828 81.6500015258789 C -1.9588241577148438 81.6500015258789 -2.138824462890625 81.49333190917969 -2.31215763092041 81.18000030517578 C -2.4054908752441406 81.02666473388672 -2.508824348449707 80.8499984741211 -2.6221580505371094 80.6500015258789 C -2.7288246154785156 80.4566650390625 -2.8088245391845703 80.30999755859375 -2.8621578216552734 80.20999908447266 C -2.9154911041259766 80.10333251953125 -2.9788246154785156 79.98666381835938 -3.052157402038574 79.86000061035156 C -3.118824005126953 79.72666931152344 -3.1754913330078125 79.62999725341797 -3.2221574783325195 79.56999969482422 C -3.2754907608032227 79.51666259765625 -3.325490951538086 79.4566650390625 -3.3721580505371094 79.38999938964844 C -3.4188241958618164 79.31666564941406 -3.4588241577148438 79.27000427246094 -3.4921579360961914 79.25 C -3.5321578979492188 79.22333526611328 -3.575490951538086 79.1933364868164 -3.6221580505371094 79.16000366210938 C -3.6688241958618164 79.13333129882812 -3.7221574783325195 79.11666870117188 -3.7821578979492188 79.11000061035156 C -3.835491180419922 79.09666442871094 -3.888824462890625 79.086669921875 -3.942157745361328 79.08000183105469 C -3.9954910278320312 79.07333374023438 -4.06215763092041 79.06999969482422 -4.142157554626465 79.06999969482422 L -7.682157516479492 79.06999969482422 C -7.835491180419922 79.06999969482422 -7.955491065979004 79.11000061035156 -8.042157173156738 79.19000244140625 C -8.128824234008789 79.26333618164062 -8.175491333007812 79.336669921875 -8.182157516479492 79.41000366210938 C -8.188824653625488 79.48333740234375 -8.192157745361328 79.58999633789062 -8.192157745361328 79.72999572753906 L -8.192157745361328 92.29000091552734 C -8.192157745361328 92.53666687011719 -8.118824005126953 92.6933364868164 -7.9721574783325195 92.76000213623047 C -7.825490951538086 92.81999969482422 -7.432157516479492 92.87333679199219 -6.792157173156738 92.91999816894531 C -6.46549129486084 92.95333099365234 -6.205491065979004 92.97666931152344 -6.012157440185547 92.98999786376953 C -5.845490455627441 93.01000213623047 -5.7321577072143555 93.06666564941406 -5.672157287597656 93.16000366210938 C -5.618824005126953 93.25333404541016 -5.592157363891602 93.42333221435547 -5.592157363891602 93.66999816894531 C -5.592157363891602 93.98332977294922 -5.725490570068359 94.13999938964844 -5.992157936096191 94.13999938964844 ZM -1.6798512935638428 89.05000305175781 C -1.6798512935638428 87.43000030517578 -1.2498512268066406 86.12666320800781 -0.3898512125015259 85.13999938964844 C 0.47014880180358887 84.15333557128906 1.516815423965454 83.66000366210938 2.7501485347747803 83.66000366210938 C 3.5434820652008057 83.66000366210938 4.310149192810059 83.87999725341797 5.050148963928223 84.31999969482422 C 5.783481597900391 84.76000213623047 6.390148162841797 85.3066635131836 6.870148658752441 85.95999908447266 C 6.996814727783203 86.12000274658203 7.060148239135742 86.2933349609375 7.060148239135742 86.4800033569336 L 7.060148239135742 86.5199966430664 C 7.060148239135742 86.66000366210938 7.020148277282715 86.78666687011719 6.94014835357666 86.9000015258789 C 6.866815567016602 87.00666809082031 6.743481636047363 87.10333251953125 6.570148468017578 87.19000244140625 C 6.396815299987793 87.27666473388672 6.246814727783203 87.34333038330078 6.120148658752441 87.38999938964844 C 6.000148773193359 87.4366683959961 5.816815376281738 87.5 5.570148468017578 87.58000183105469 C 5.330148696899414 87.66000366210938 5.180149078369141 87.7066650390625 5.120148658752441 87.72000122070312 C 1.8534820079803467 88.84666442871094 0.18014883995056152 89.43333435058594 0.10014867782592773 89.4800033569336 C 0.04014873504638672 89.50666809082031 0.010148763656616211 89.55332946777344 0.010148763656616211 89.62000274658203 C 0.010148763656616211 89.71333312988281 0.03348207473754883 89.87000274658203 0.08014869689941406 90.08999633789062 C 0.1268153190612793 90.30332946777344 0.2301487922668457 90.58999633789062 0.3901486396789551 90.94999694824219 C 0.5568153858184814 91.30999755859375 0.7601487636566162 91.6433334350586 1.0001487731933594 91.94999694824219 C 1.2468154430389404 92.25666809082031 1.5968153476715088 92.52333068847656 2.0501487255096436 92.75 C 2.5034821033477783 92.97666931152344 3.010148763656616 93.08999633789062 3.5701487064361572 93.08999633789062 C 4.663481712341309 93.08999633789062 5.616815567016602 92.69667053222656 6.430148124694824 91.91000366210938 C 6.650148391723633 91.69667053222656 6.830148696899414 91.58999633789062 6.970148086547852 91.58999633789062 C 7.236815452575684 91.58999633789062 7.370148658752441 91.7066650390625 7.370148658752441 91.94000244140625 C 7.370148658752441 92.03333282470703 7.306815147399902 92.15666961669922 7.180148124694824 92.30999755859375 C 6.680148124694824 92.97000122070312 6.0534820556640625 93.48999786376953 5.300148963928223 93.87000274658203 C 4.5534820556640625 94.25666809082031 3.766815423965454 94.44999694824219 2.9401485919952393 94.44999694824219 C 2.40681529045105 94.44999694824219 1.8868153095245361 94.35333251953125 1.3801486492156982 94.16000366210938 C 0.8734819889068604 93.97333526611328 0.38014864921569824 93.6866683959961 -0.09985136985778809 93.30000305175781 C -0.573184609413147 92.90666961669922 -0.9565179347991943 92.34333038330078 -1.2498512268066406 91.61000061035156 C -1.536517858505249 90.87666320800781 -1.6798512935638428 90.02333068847656 -1.6798512935638428 89.05000305175781 M 4.740148544311523 86.56999969482422 C 4.740148544311523 86.37000274658203 4.466814994812012 86.05332946777344 3.9201486110687256 85.62000274658203 C 3.3734819889068604 85.1933364868164 2.8034822940826416 84.97999572753906 2.210148572921753 84.97999572753906 C 1.5101487636566162 84.97999572753906 0.9501488208770752 85.28333282470703 0.5301487445831299 85.88999938964844 C 0.11681532859802246 86.49666595458984 -0.08985114097595215 87.33333587646484 -0.08985114097595215 88.4000015258789 C -0.08985114097595215 88.52666473388672 -0.049851179122924805 88.58999633789062 0.030148744583129883 88.58999633789062 C 0.06348204612731934 88.58999633789062 0.8101487159729004 88.30332946777344 2.270148515701294 87.7300033569336 C 3.7301485538482666 87.15666961669922 4.483482360839844 86.86333465576172 4.530148506164551 86.8499984741211 C 4.670148849487305 86.7699966430664 4.740148544311523 86.67666625976562 4.740148544311523 86.56999969482422 ZM 11.326068878173828 77.55000305175781 C 11.812734603881836 77.55000305175781 12.252735137939453 77.54000091552734 12.646068572998047 77.52000427246094 C 13.04606819152832 77.50666809082031 13.35940170288086 77.49333190917969 13.586069107055664 77.47999572753906 C 13.812734603881836 77.45999908447266 13.94940185546875 77.44999694824219 13.996068954467773 77.44999694824219 C 14.156068801879883 77.44999694824219 14.272735595703125 77.49666595458984 14.346068382263184 77.58999633789062 C 14.426068305969238 77.68333435058594 14.466068267822266 77.87333679199219 14.466068267822266 78.16000366210938 C 14.466068267822266 78.32666778564453 14.379402160644531 78.4433364868164 14.20606803894043 78.51000213623047 C 14.03940200805664 78.56999969482422 13.846068382263184 78.59666442871094 13.626068115234375 78.58999633789062 C 13.406068801879883 78.58333587646484 13.209402084350586 78.62666320800781 13.036067962646484 78.72000122070312 C 12.862735748291016 78.8133316040039 12.776067733764648 78.97000122070312 12.776067733764648 79.19000244140625 C 12.776067733764648 79.29666900634766 12.869401931762695 79.53666687011719 13.056068420410156 79.91000366210938 C 14.809401512145996 82.75666809082031 15.709402084350586 84.1866683959961 15.75606918334961 84.19999694824219 C 15.78940200805664 84.19999694824219 15.819400787353516 84.1866683959961 15.8460693359375 84.16000366210938 C 16.086069107055664 83.82666778564453 16.332735061645508 83.47999572753906 16.586069107055664 83.12000274658203 C 16.8460693359375 82.76666259765625 17.052734375 82.47999572753906 17.20606803894043 82.26000213623047 C 17.36606788635254 82.04000091552734 17.53273582458496 81.8133316040039 17.70606803894043 81.58000183105469 C 17.87273597717285 81.34666442871094 18.002735137939453 81.16000366210938 18.0960693359375 81.02000427246094 C 18.189401626586914 80.87333679199219 18.28940200805664 80.72666931152344 18.396068572998047 80.58000183105469 C 18.496068954467773 80.43333435058594 18.569400787353516 80.31666564941406 18.61606788635254 80.22999572753906 C 18.662734985351562 80.1433334350586 18.709402084350586 80.05332946777344 18.75606918334961 79.95999908447266 C 18.802734375 79.86666870117188 18.839401245117188 79.79000091552734 18.86606788635254 79.72999572753906 C 18.88606834411621 79.663330078125 18.899402618408203 79.5999984741211 18.906068801879883 79.54000091552734 C 18.912734985351562 79.47999572753906 18.91606903076172 79.41000366210938 18.91606903076172 79.33000183105469 C 18.91606903076172 79.21666717529297 18.909400939941406 79.12333679199219 18.896068572998047 79.05000305175781 C 18.882734298706055 78.97000122070312 18.842735290527344 78.90333557128906 18.77606773376465 78.8499984741211 C 18.716068267822266 78.79666900634766 18.669401168823242 78.75333404541016 18.63606834411621 78.72000122070312 C 18.60940170288086 78.6866683959961 18.53940200805664 78.663330078125 18.426069259643555 78.6500015258789 C 18.319400787353516 78.62999725341797 18.242734909057617 78.61666870117188 18.196067810058594 78.61000061035156 C 18.149402618408203 78.60333251953125 18.049402236938477 78.59666442871094 17.896068572998047 78.58999633789062 C 17.749401092529297 78.58333587646484 17.652734756469727 78.58000183105469 17.606067657470703 78.58000183105469 C 17.186067581176758 78.54666900634766 16.9760684967041 78.30999755859375 16.9760684967041 77.87000274658203 C 16.9760684967041 77.58999633789062 17.10940170288086 77.44999694824219 17.376068115234375 77.44999694824219 C 17.4227352142334 77.44999694824219 17.562734603881836 77.45999908447266 17.79606819152832 77.47999572753906 C 18.029401779174805 77.49333190917969 18.356067657470703 77.50666809082031 18.77606773376465 77.52000427246094 C 19.202735900878906 77.54000091552734 19.656068801879883 77.55000305175781 20.13606834411621 77.55000305175781 C 20.63606834411621 77.55000305175781 21.092735290527344 77.54000091552734 21.50606918334961 77.52000427246094 C 21.919401168823242 77.50666809082031 22.249401092529297 77.49333190917969 22.496068954467773 77.47999572753906 C 22.736068725585938 77.45999908447266 22.87940216064453 77.44999694824219 22.926069259643555 77.44999694824219 C 23.2260684967041 77.44999694824219 23.376068115234375 77.5999984741211 23.376068115234375 77.9000015258789 C 23.376068115234375 78.18000030517578 23.306068420410156 78.37333679199219 23.16606903076172 78.47999572753906 C 23.02606773376465 78.59333038330078 22.85940170288086 78.63999938964844 22.66606903076172 78.62000274658203 C 22.479402542114258 78.6066665649414 22.23940086364746 78.62333679199219 21.946067810058594 78.66999816894531 C 21.646068572998047 78.71666717529297 21.38606834411621 78.82666778564453 21.16606903076172 79 C 20.979402542114258 79.13999938964844 20.716068267822266 79.42666625976562 20.376068115234375 79.86000061035156 C 20.029401779174805 80.28666687011719 19.792734146118164 80.59333038330078 19.66606903076172 80.77999877929688 C 17.592735290527344 83.72000122070312 16.556068420410156 85.22000122070312 16.556068420410156 85.27999877929688 C 16.556068420410156 85.36000061035156 17.929401397705078 87.56999969482422 20.676069259643555 91.91000366210938 C 20.9760684967041 92.38333129882812 21.209402084350586 92.65666961669922 21.376068115234375 92.7300033569336 C 21.549402236938477 92.80999755859375 22.002735137939453 92.88999938964844 22.736068725585938 92.97000122070312 C 23.162734985351562 93.02999877929688 23.376068115234375 93.25666809082031 23.376068115234375 93.6500015258789 C 23.376068115234375 93.97666931152344 23.236068725585938 94.13999938964844 22.95606803894043 94.13999938964844 C 22.936067581176758 94.13999938964844 22.87273597717285 94.13666534423828 22.766067504882812 94.12999725341797 C 22.652734756469727 94.12333679199219 22.499401092529297 94.11000061035156 22.306068420410156 94.08999633789062 C 22.112735748291016 94.07666778564453 21.89273452758789 94.0633316040039 21.646068572998047 94.05000305175781 C 21.406068801879883 94.02999877929688 21.126068115234375 94.01667022705078 20.806068420410156 94.01000213623047 C 20.486068725585938 94.00333404541016 20.169401168823242 94 19.856067657470703 94 C 19.542734146118164 94 19.229402542114258 94.00333404541016 18.91606903076172 94.01000213623047 C 18.60940170288086 94.01667022705078 18.332735061645508 94.02999877929688 18.086069107055664 94.05000305175781 C 17.8460693359375 94.0633316040039 17.632734298706055 94.07666778564453 17.446067810058594 94.08999633789062 C 17.259401321411133 94.11000061035156 17.106067657470703 94.12333679199219 16.986068725585938 94.12999725341797 C 16.86606788635254 94.13666534423828 16.799402236938477 94.13999938964844 16.786067962646484 94.13999938964844 C 16.492734909057617 94.13999938964844 16.3460693359375 93.97666931152344 16.3460693359375 93.6500015258789 C 16.3460693359375 93.32333374023438 16.492734909057617 93.12000274658203 16.786067962646484 93.04000091552734 C 16.87940216064453 93.02666473388672 17.209402084350586 92.9800033569336 17.77606773376465 92.9000015258789 C 18.12940216064453 92.83333587646484 18.306068420410156 92.65333557128906 18.306068420410156 92.36000061035156 L 18.306068420410156 92.30999755859375 C 18.306068420410156 92.15666961669922 17.746068954467773 91.19000244140625 16.626068115234375 89.41000366210938 C 16.059402465820312 88.51667022705078 15.589401245117188 87.76667022705078 15.216068267822266 87.16000366210938 C 15.216068267822266 87.11333465576172 15.19273567199707 87.08999633789062 15.146068572998047 87.08999633789062 C 15.086069107055664 87.08999633789062 13.986068725585938 88.63666534423828 11.846068382263184 91.7300033569336 C 11.672735214233398 91.96333312988281 11.586069107055664 92.16666412353516 11.586069107055664 92.33999633789062 C 11.586069107055664 92.57333374023438 11.666069030761719 92.72333526611328 11.826068878173828 92.79000091552734 C 11.992734909057617 92.86333465576172 12.326068878173828 92.92333221435547 12.826068878173828 92.97000122070312 C 12.919401168823242 92.98332977294922 12.996068954467773 92.98999786376953 13.056068420410156 92.98999786376953 C 13.496068954467773 93.06999969482422 13.716068267822266 93.27999877929688 13.716068267822266 93.62000274658203 C 13.716068267822266 93.96666717529297 13.576068878173828 94.13999938964844 13.29606819152832 94.13999938964844 C 13.282734870910645 94.13999938964844 13.226068496704102 94.13666534423828 13.126068115234375 94.12999725341797 C 13.032734870910645 94.12333679199219 12.902734756469727 94.11000061035156 12.736068725585938 94.08999633789062 C 12.562734603881836 94.07666778564453 12.372735023498535 94.0633316040039 12.166069030761719 94.05000305175781 C 11.966068267822266 94.02999877929688 11.732734680175781 94.01667022705078 11.466068267822266 94.01000213623047 C 11.19940185546875 94.00333404541016 10.932735443115234 94 10.666068077087402 94 C 10.246068954467773 94 9.829401969909668 94.01333618164062 9.416068077087402 94.04000091552734 C 9.002735137939453 94.05999755859375 8.669402122497559 94.07666778564453 8.416068077087402 94.08999633789062 L 8.04606819152832 94.13999938964844 C 7.812735080718994 94.13999938964844 7.696068286895752 93.99333190917969 7.696068286895752 93.69999694824219 C 7.696068286895752 93.62000274658203 7.69940185546875 93.55333709716797 7.706068515777588 93.5 C 7.712735176086426 93.44000244140625 7.716068267822266 93.3933334350586 7.716068267822266 93.36000061035156 C 7.716068267822266 93.31999969482422 7.7327351570129395 93.27999877929688 7.766068458557129 93.23999786376953 C 7.7927350997924805 93.19999694824219 7.812735080718994 93.16666412353516 7.82606840133667 93.13999938964844 C 7.832735061645508 93.12000274658203 7.862735271453857 93.10333251953125 7.9160685539245605 93.08999633789062 C 7.969401836395264 93.06999969482422 8.009401321411133 93.05333709716797 8.036067962646484 93.04000091552734 C 8.056068420410156 93.02666473388672 8.10606861114502 93.01000213623047 8.186068534851074 92.98999786376953 C 8.266068458557129 92.97666931152344 8.326068878173828 92.96666717529297 8.366068840026855 92.95999908447266 C 8.399401664733887 92.95333099365234 8.476068496704102 92.94000244140625 8.596068382263184 92.91999816894531 C 8.716068267822266 92.90666961669922 8.806068420410156 92.88999938964844 8.866067886352539 92.87000274658203 C 8.972735404968262 92.8566665649414 9.072734832763672 92.83333587646484 9.166068077087402 92.80000305175781 C 9.259401321411133 92.77333068847656 9.342735290527344 92.74333190917969 9.416068077087402 92.70999908447266 C 9.489401817321777 92.67666625976562 9.566068649291992 92.62666320800781 9.646068572998047 92.55999755859375 C 9.732734680175781 92.48666381835938 9.799402236938477 92.43000030517578 9.846068382263184 92.38999938964844 C 9.89273452758789 92.3566665649414 9.969402313232422 92.27666473388672 10.076068878173828 92.1500015258789 C 10.176068305969238 92.02333068847656 10.249402046203613 91.93000030517578 10.29606819152832 91.87000274658203 C 10.342735290527344 91.80332946777344 10.432735443115234 91.67333221435547 10.566068649291992 91.4800033569336 C 10.69940185546875 91.28666687011719 10.802735328674316 91.13333129882812 10.876068115234375 91.0199966430664 C 13.236068725585938 87.72666931152344 14.416069030761719 86.0566635131836 14.416069030761719 86.01000213623047 C 14.416069030761719 85.9433364868164 13.14273452758789 83.87999725341797 10.596068382263184 79.81999969482422 C 10.256068229675293 79.27333068847656 9.982734680175781 78.94999694824219 9.776068687438965 78.8499984741211 C 9.576068878173828 78.75 9.186068534851074 78.67333221435547 8.60606861114502 78.62000274658203 C 8.19940185546875 78.59333038330078 7.996068477630615 78.38333129882812 7.996068477630615 77.98999786376953 C 7.996068477630615 77.62999725341797 8.159401893615723 77.44999694824219 8.486068725585938 77.44999694824219 C 8.532734870910645 77.44999694824219 8.676068305969238 77.45999908447266 8.916068077087402 77.47999572753906 C 9.149401664733887 77.49333190917969 9.476068496704102 77.50666809082031 9.896068572998047 77.52000427246094 C 10.316068649291992 77.54000091552734 10.769401550292969 77.55000305175781 11.256068229675293 77.55000305175781 L 11.326068878173828 77.55000305175781 Z" transform="matrix(3.0555293560028076, 0, 0, 3.0555293560028076, 153.51370239257812, -137.61012268066406)" style="fill: rgb(235, 255, 251); white-space: pre; color: rgb(51, 51, 51); stroke: rgb(0, 0, 0); paint-order: stroke; stroke-width: 0; stroke-opacity: 1;"/></svg>
